<?xml version="1.0" encoding="utf-8"?>
<!-- Generator: Adobe Illustrator 24.1.2, SVG Export Plug-In . SVG Version: 6.00 Build 0)  -->
<svg version="1.1" xmlns="http://www.w3.org/2000/svg" xmlns:xlink="http://www.w3.org/1999/xlink" x="0px" y="0px"
	 viewBox="0 0 512 512" style="enable-background:new 0 0 512 512;" xml:space="preserve">
<style type="text/css">
	.st0{fill:#D27E36;}
	.st1{fill:url(#SVGID_1_);}
	.st2{fill:url(#SVGID_2_);}
	.st3{fill:url(#SVGID_3_);}
	.st4{fill:url(#SVGID_4_);}
	.st5{fill:url(#SVGID_5_);}
	.st6{fill:url(#SVGID_6_);}
	.st7{fill:url(#SVGID_7_);}
	.st8{fill:url(#SVGID_8_);}
	.st9{fill:none;}
	.st10{fill:#FFFFFF;}
	.st11{font-family:'PTMono-Bold';}
	.st12{font-size:99px;}
</style>
<g id="bkgd">
	<rect class="st0" width="512" height="512"/>
</g>
<g id="name">
	<g>
		<g>
			<linearGradient id="SVGID_1_" gradientUnits="userSpaceOnUse" x1="283.2959" y1="415.5026" x2="283.2959" y2="416.6284">
				<stop  offset="0" style="stop-color:#FFFFFF"/>
				<stop  offset="1" style="stop-color:#000000"/>
			</linearGradient>
			<path class="st1" d="M19.6,269.1v-5l46.2-28.7l5.6,8.9l-36,21.8l36,21.3l-5.6,8.9L19.6,269.1z"/>
			<linearGradient id="SVGID_2_" gradientUnits="userSpaceOnUse" x1="283.2959" y1="415.5026" x2="283.2959" y2="416.6284">
				<stop  offset="0" style="stop-color:#FFFFFF"/>
				<stop  offset="1" style="stop-color:#000000"/>
			</linearGradient>
			<path class="st2" d="M84.5,229h41.4v44.2c0,3.8-0.5,7.3-1.4,10.6c-1,3.3-2.7,6.2-5.2,8.8c-1.6,1.6-3.3,2.8-5.1,3.8
				c-1.8,0.9-3.6,1.6-5.3,2.1c-1.7,0.5-3.3,0.8-4.9,0.9c-1.5,0.1-2.8,0.2-3.8,0.2c-3.2,0-6.2-0.3-9.2-1c-3-0.7-5.9-1.9-8.9-3.7
				l4.9-10.9c2.5,1.5,4.7,2.4,6.5,2.9c1.8,0.5,3.9,0.7,6.3,0.7c1.5,0,3-0.3,4.7-0.8c1.7-0.6,3.2-1.5,4.4-2.8c2.3-2.5,3.5-6,3.5-10.5
				v-32.2H84.5V229z"/>
			<linearGradient id="SVGID_3_" gradientUnits="userSpaceOnUse" x1="283.2959" y1="415.5026" x2="283.2959" y2="416.6284">
				<stop  offset="0" style="stop-color:#FFFFFF"/>
				<stop  offset="1" style="stop-color:#000000"/>
			</linearGradient>
			<path class="st3" d="M143.7,252.2c2.6-1.2,5.7-2.2,9.2-3.1c3.5-0.9,7.6-1.3,12.3-1.3c3.4,0,6.4,0.4,8.8,1.2
				c2.4,0.8,4.4,2,5.8,3.5c1.5,1.5,2.6,3.3,3.2,5.4c0.7,2.1,1,4.5,1,7.1c0,3.4-0.1,6.2-0.3,8.6c-0.2,2.4-0.3,4.5-0.3,6.3
				c0,1.4,0.1,2.9,0.2,4.7c0.1,0.9,0.2,1.8,0.3,2.7h6.4v10.9h-16.6l-1.3-6.7h-0.5c-1.3,2-3.2,3.8-5.6,5.3c-2.4,1.5-5.7,2.2-9.8,2.2
				c-4.9,0-8.8-1.3-11.7-4c-2.9-2.6-4.3-6.1-4.3-10.5c0-2.8,0.5-5.2,1.5-7.2c1-2,2.5-3.7,4.4-5c1.9-1.3,4.3-2.2,7-2.9
				c2.7-0.6,5.8-0.9,9.1-0.9c1.2,0,2.4,0.1,3.7,0.2c1.3,0.1,2.9,0.3,4.8,0.4c0.1-0.7,0.2-1.3,0.2-2v-1.9c0-2.5-0.7-4.3-2.2-5.4
				c-1.4-1.1-3.6-1.6-6.4-1.6c-3.3,0-6.4,0.4-9,1.3c-2.7,0.9-4.9,1.7-6.8,2.6L143.7,252.2z M160.6,288.5c3.1,0,5.5-0.6,7-1.7
				c1.6-1.2,2.7-2.4,3.4-3.7v-5.9c-0.7-0.1-1.6-0.3-2.9-0.4c-1.3-0.2-2.7-0.2-4.2-0.2c-1.2,0-2.5,0.1-3.7,0.3
				c-1.2,0.2-2.3,0.6-3.3,1.1c-1,0.5-1.8,1.1-2.4,1.9c-0.6,0.8-0.9,1.7-0.9,2.9c0,1.8,0.5,3.3,1.6,4.3S158.1,288.5,160.6,288.5z"/>
			<linearGradient id="SVGID_4_" gradientUnits="userSpaceOnUse" x1="283.2959" y1="415.5026" x2="283.2959" y2="416.6284">
				<stop  offset="0" style="stop-color:#FFFFFF"/>
				<stop  offset="1" style="stop-color:#000000"/>
			</linearGradient>
			<path class="st4" d="M234,284.6c0-1.3-0.8-2.4-2.4-3.2c-1.6-0.8-3.6-1.5-6-2.2c-2.4-0.7-5-1.3-7.8-2c-2.8-0.7-5.4-1.6-7.8-2.9
				c-2.4-1.2-4.4-2.8-6-4.7c-1.6-1.9-2.4-4.3-2.4-7.3c0-2.4,0.5-4.6,1.6-6.4c1.1-1.8,2.6-3.4,4.5-4.7s4.1-2.3,6.7-2.9
				c2.6-0.7,5.4-1,8.5-1c3.2,0,6.1,0.2,8.5,0.7c2.4,0.5,4.6,1,6.4,1.7c1.8,0.7,3.4,1.4,4.7,2.2c1.3,0.8,2.4,1.6,3.3,2.2l-5.4,8.8
				c-1-0.6-2.1-1.2-3.4-1.8c-1.3-0.6-2.6-1.2-4.1-1.7c-1.4-0.5-2.9-1-4.5-1.3c-1.6-0.3-3.1-0.5-4.6-0.5c-2.8,0-5,0.4-6.7,1.1
				c-1.7,0.7-2.6,1.8-2.6,3.4c0,1.2,0.8,2.1,2.4,2.9c1.6,0.7,3.6,1.4,6,2c2.4,0.6,5,1.3,7.8,2c2.8,0.7,5.4,1.7,7.8,2.8
				c2.4,1.2,4.4,2.7,6,4.5c1.6,1.8,2.4,4.2,2.4,7.1c0,5-1.8,9-5.5,11.8c-3.7,2.9-9.1,4.3-16.3,4.3c-5.7,0-10.6-0.8-14.7-2.5
				c-4.1-1.7-7.4-3.6-9.9-5.9l5.9-9.3c0.9,0.7,2,1.5,3.4,2.4c1.4,0.9,3,1.7,4.8,2.4c1.8,0.7,3.7,1.3,5.7,1.8c2,0.5,4,0.7,6,0.7
				c2.1,0,3.9-0.4,5.4-1.1C233.2,287.6,234,286.4,234,284.6z"/>
			<linearGradient id="SVGID_5_" gradientUnits="userSpaceOnUse" x1="283.2959" y1="415.5026" x2="283.2959" y2="416.6284">
				<stop  offset="0" style="stop-color:#FFFFFF"/>
				<stop  offset="1" style="stop-color:#000000"/>
			</linearGradient>
			<path class="st5" d="M257.1,273.5c0-4.2,0.6-7.9,1.9-11.1c1.3-3.2,3-6,5.3-8.2c2.3-2.2,5.1-3.9,8.3-5.1c3.2-1.2,6.8-1.7,10.7-1.7
				c4.2,0,7.9,0.6,11.1,1.9c3.3,1.3,6,3,8.3,5.3s3.9,5,5.1,8.3c1.2,3.2,1.7,6.8,1.7,10.7c0,4.2-0.6,7.9-1.9,11.1
				c-1.3,3.2-3,6-5.3,8.2c-2.3,2.2-5.1,3.9-8.3,5.1c-3.2,1.2-6.8,1.7-10.7,1.7c-4.2,0-7.9-0.6-11.1-1.9s-6-3-8.3-5.3
				c-2.2-2.3-3.9-5-5.1-8.3C257.6,281,257.1,277.4,257.1,273.5z M270.3,273.5c0,2.2,0.3,4.2,0.9,6c0.6,1.8,1.5,3.5,2.6,4.9
				c1.1,1.4,2.5,2.5,4.1,3.2c1.6,0.8,3.4,1.1,5.4,1.1c3.8,0,6.9-1.2,9.4-3.7c2.4-2.4,3.6-6.3,3.6-11.6c0-4.6-1.1-8.2-3.4-11
				c-2.2-2.8-5.4-4.2-9.6-4.2c-1.8,0-3.6,0.3-5.1,0.8c-1.6,0.6-3,1.5-4.1,2.7c-1.2,1.3-2.1,2.8-2.7,4.8
				C270.7,268.5,270.3,270.8,270.3,273.5z"/>
			<linearGradient id="SVGID_6_" gradientUnits="userSpaceOnUse" x1="283.2959" y1="415.5026" x2="283.2959" y2="416.6284">
				<stop  offset="0" style="stop-color:#FFFFFF"/>
				<stop  offset="1" style="stop-color:#000000"/>
			</linearGradient>
			<path class="st6" d="M314.2,248.8h17.3l1.5,6.5h0.4c1.5-2.1,3.7-4,6.5-5.5c2.8-1.6,6.2-2.4,10.2-2.4c2.4,0,4.7,0.3,6.9,1
				c2.1,0.7,4,1.7,5.5,3.3c1.5,1.5,2.7,3.6,3.6,6.2c0.9,2.6,1.3,5.8,1.3,9.7v30.8h-12.9v-28.1c0-4-0.9-6.9-2.7-8.7
				c-1.8-1.8-4.1-2.7-6.9-2.7c-2.4,0-4.7,0.7-6.7,2.1c-2,1.4-3.4,3.2-4.1,5.3v32.1h-12.9v-38.6h-7.1V248.8z"/>
			<linearGradient id="SVGID_7_" gradientUnits="userSpaceOnUse" x1="283.2959" y1="415.5026" x2="283.2959" y2="416.6284">
				<stop  offset="0" style="stop-color:#FFFFFF"/>
				<stop  offset="1" style="stop-color:#000000"/>
			</linearGradient>
			<path class="st7" d="M414.9,227.8l9.7,4.4l-35.3,80l-9.7-4.6L414.9,227.8z"/>
			<linearGradient id="SVGID_8_" gradientUnits="userSpaceOnUse" x1="283.2959" y1="415.5026" x2="283.2959" y2="416.6284">
				<stop  offset="0" style="stop-color:#FFFFFF"/>
				<stop  offset="1" style="stop-color:#000000"/>
			</linearGradient>
			<path class="st8" d="M441,296.3l-5.6-8.9l36-21.3l-36-21.8l5.6-8.9l46.2,28.7v5L441,296.3z"/>
		</g>
		<rect x="16" y="229" class="st9" width="478" height="85"/>
		<text transform="matrix(1 0 0 1 16 298.2998)" class="st10 st11 st12">&lt;Jason/&gt;</text>
	</g>
</g>
</svg>
